<?xml version="1.0" encoding="UTF-8" standalone="no"?>
<!DOCTYPE svg PUBLIC "-//W3C//DTD SVG 1.1//EN"
 "http://www.w3.org/Graphics/SVG/1.1/DTD/svg11.dtd">
<!-- Generated by graphviz version 2.30.1 (20130220.0822)
 -->
<!-- Title: G Pages: 1 -->
<svg width="338pt" height="259pt"
 viewBox="0.00 0.00 338.00 259.00" xmlns="http://www.w3.org/2000/svg" xmlns:xlink="http://www.w3.org/1999/xlink">
<g id="graph0" class="graph" transform="scale(1 1) rotate(0) translate(4 255)">
<title>G</title>
<polygon fill="white" stroke="white" points="-4,5 -4,-255 335,-255 335,5 -4,5"/>
<g id="clust1" class="cluster"><title>cluster_Global</title>
<path fill="none" stroke="gray" d="M182,-8C182,-8 310,-8 310,-8 316,-8 322,-14 322,-20 322,-20 322,-231 322,-231 322,-237 316,-243 310,-243 310,-243 182,-243 182,-243 176,-243 170,-237 170,-231 170,-231 170,-20 170,-20 170,-14 176,-8 182,-8"/>
<text text-anchor="middle" x="246" y="-228" font-family="Times,serif" font-size="11.00" fill="gray">\</text>
</g>
<!-- \\PHPMailer -->
<g id="node1" class="node"><title>\\PHPMailer</title>
<polygon fill="none" stroke="black" points="283.911,-214 208.089,-214 208.089,-178 283.911,-178 283.911,-214"/>
<text text-anchor="middle" x="246" y="-191.6" font-family="Courier,monospace" font-size="11.00">PHPMailer</text>
</g>
<!-- \\phpmailerException -->
<g id="node2" class="node"><title>\\phpmailerException</title>
<polygon fill="none" stroke="black" points="313.319,-160 178.681,-160 178.681,-124 313.319,-124 313.319,-160"/>
<text text-anchor="middle" x="246" y="-137.6" font-family="Courier,monospace" font-size="11.00">phpmailerException</text>
</g>
<!-- \\Exception -->
<g id="node5" class="node"><title>\\Exception</title>
<ellipse fill="none" stroke="black" cx="53" cy="-142" rx="52.7417" ry="18"/>
<text text-anchor="middle" x="53" y="-136.4" font-family="Times,serif" font-size="14.00" fill="gray">\Exception</text>
</g>
<!-- \\phpmailerException&#45;&gt;\\Exception -->
<g id="edge1" class="edge"><title>\\phpmailerException&#45;&gt;\\Exception</title>
<path fill="none" stroke="black" d="M178.466,-142C158.296,-142 136.222,-142 116.339,-142"/>
<polygon fill="none" stroke="black" points="116.162,-138.5 106.162,-142 116.162,-145.5 116.162,-138.5"/>
</g>
<!-- \\POP3 -->
<g id="node3" class="node"><title>\\POP3</title>
<polygon fill="none" stroke="black" points="273,-106 219,-106 219,-70 273,-70 273,-106"/>
<text text-anchor="middle" x="246" y="-83.6" font-family="Courier,monospace" font-size="11.00">POP3</text>
</g>
<!-- \\SMTP -->
<g id="node4" class="node"><title>\\SMTP</title>
<polygon fill="none" stroke="black" points="273,-52 219,-52 219,-16 273,-16 273,-52"/>
<text text-anchor="middle" x="246" y="-29.6" font-family="Courier,monospace" font-size="11.00">SMTP</text>
</g>
</g>
</svg>
