<?xml version="1.0" encoding="UTF-8" standalone="no"?>
<!DOCTYPE svg PUBLIC "-//W3C//DTD SVG 1.1//EN"
 "http://www.w3.org/Graphics/SVG/1.1/DTD/svg11.dtd">
<!-- Generated by graphviz version 2.38.0 (20140413.2041)
 -->
<!-- Title: G Pages: 1 -->
<svg width="298pt" height="257pt"
 viewBox="0.00 0.00 298.03 257.00" xmlns="http://www.w3.org/2000/svg" xmlns:xlink="http://www.w3.org/1999/xlink">
<g id="graph0" class="graph" transform="scale(1 1) rotate(0) translate(4 253)">
<title>G</title>
<polygon fill="white" stroke="none" points="-4,4 -4,-253 294.026,-253 294.026,4 -4,4"/>
<g id="clust1" class="cluster"><title>cluster_Global</title>
<path fill="none" stroke="gray" d="M172.834,-8C172.834,-8 270.026,-8 270.026,-8 276.026,-8 282.026,-14 282.026,-20 282.026,-20 282.026,-229 282.026,-229 282.026,-235 276.026,-241 270.026,-241 270.026,-241 172.834,-241 172.834,-241 166.834,-241 160.834,-235 160.834,-229 160.834,-229 160.834,-20 160.834,-20 160.834,-14 166.834,-8 172.834,-8"/>
<text text-anchor="middle" x="221.43" y="-228.2" font-family="Times,serif" font-size="11.00" fill="gray">Global</text>
</g>
<!-- \\PHPMailer -->
<g id="node1" class="node"><title>\\PHPMailer</title>
<polygon fill="none" stroke="black" points="253.932,-214 188.928,-214 188.928,-178 253.932,-178 253.932,-214"/>
<text text-anchor="middle" x="221.43" y="-192.7" font-family="Times,serif" font-size="11.00">PHPMailer</text>
</g>
<!-- \\phpmailerException -->
<g id="node2" class="node"><title>\\phpmailerException</title>
<polygon fill="none" stroke="black" points="274.123,-160 168.738,-160 168.738,-124 274.123,-124 274.123,-160"/>
<text text-anchor="middle" x="221.43" y="-138.7" font-family="Times,serif" font-size="11.00">phpmailerException</text>
</g>
<!-- \\Exception -->
<g id="node5" class="node"><title>\\Exception</title>
<ellipse fill="none" stroke="black" cx="48.417" cy="-142" rx="48.3341" ry="18"/>
<text text-anchor="middle" x="48.417" y="-137.8" font-family="Times,serif" font-size="14.00" fill="gray">\Exception</text>
</g>
<!-- \\phpmailerException&#45;&gt;\\Exception -->
<g id="edge1" class="edge"><title>\\phpmailerException&#45;&gt;\\Exception</title>
<path fill="none" stroke="black" d="M168.656,-142C149.235,-142 127.047,-142 107.121,-142"/>
<polygon fill="none" stroke="black" points="106.933,-138.5 96.933,-142 106.933,-145.5 106.933,-138.5"/>
</g>
<!-- \\POP3 -->
<g id="node3" class="node"><title>\\POP3</title>
<polygon fill="none" stroke="black" points="248.43,-106 194.43,-106 194.43,-70 248.43,-70 248.43,-106"/>
<text text-anchor="middle" x="221.43" y="-84.7" font-family="Times,serif" font-size="11.00">POP3</text>
</g>
<!-- \\SMTP -->
<g id="node4" class="node"><title>\\SMTP</title>
<polygon fill="none" stroke="black" points="248.43,-52 194.43,-52 194.43,-16 248.43,-16 248.43,-52"/>
<text text-anchor="middle" x="221.43" y="-30.7" font-family="Times,serif" font-size="11.00">SMTP</text>
</g>
</g>
</svg>
